<?xml version="1.0" encoding="iso-8859-1"?>
<!-- Uploaded to: SVG Repo, www.svgrepo.com, Generator: SVG Repo Mixer Tools -->
<svg height="800px" width="800px" version="1.1" id="Layer_1" xmlns="http://www.w3.org/2000/svg" xmlns:xlink="http://www.w3.org/1999/xlink" 
	 viewBox="0 0 512 512" xml:space="preserve">
<path style="fill:#414042;" d="M140.598,315.956V120.013v-4.296C140.598,51.809,192.09,0,256.314,0
	c64.505,0,115.717,51.809,115.717,115.716v39.541v160.738L140.598,315.956z"/>
<path style="fill:#E0A88F;" d="M195.926,255.121l-0.534,45.632c0,0,19.354,25.206,54.462,25.206
	c42.31,0,66.765-25.206,66.765-25.206l0.621-47.21L195.926,255.121z"/>
<path style="fill:#D49481;" d="M248.13,285.988c5.059,4.151,13.735,10.139,25.89,13.564c19.472,5.488,35.918,1.029,42.599-1.2
	c0.206-14.936,0.413-29.874,0.621-44.81L248.13,285.988z"/>
<ellipse style="fill:#F2C6A0;" cx="256" cy="155.233" rx="92.637" ry="131.226"/>
<path style="fill:#E6B593;" d="M256.005,24.007c-6.372,0-12.594,0.912-18.604,2.648c42.246,12.201,74.034,65.129,74.034,128.577
	c0,63.447-31.788,116.376-74.034,128.577c6.01,1.736,12.232,2.648,18.604,2.648c51.163,0,92.638-58.751,92.638-131.225
	C348.644,82.758,307.168,24.007,256.005,24.007z"/>
<path style="fill:#58595B;" d="M372.032,115.717c0-63.907-51.807-115.716-115.716-115.716l0,0
	C192.407,0.001,140.6,51.81,140.6,115.717v4.295l0.097,0.004c33.883-0.145,64.336-18.311,85.425-47.165
	c13.016,61.467,60.101,82.626,60.101,82.626l41.549-0.107l43.061-0.793l1.2-0.501v-38.358H372.032z"/>
<path style="fill:#414042;" d="M256.316,0.001L256.316,0.001c-7.57,0-14.967,0.736-22.131,2.123
	c53.321,10.328,93.585,57.254,93.585,113.594l0.001,39.64l43.95-0.1h0.31v-39.542C372.032,51.81,320.224,0.001,256.316,0.001z"/>
<g>
	<circle style="fill:#58595B;" cx="216.187" cy="171.124" r="9.002"/>
	<circle style="fill:#58595B;" cx="286.727" cy="171.124" r="9.002"/>
</g>
<path style="fill:#ED4850;" d="M257.651,249.281c-10.003,0-19.731-3.729-28.93-11.088c-3.88-3.106-4.511-8.772-1.403-12.653
	c3.105-3.882,8.772-4.511,12.653-1.404c5.922,4.74,11.874,7.142,17.693,7.142c0.084,0,0.168,0,0.251-0.001
	c4.996-0.059,10.063-1.895,15.062-5.458c4.047-2.888,9.672-1.942,12.555,2.105c2.885,4.049,1.942,9.671-2.106,12.555
	c-8.047,5.736-16.559,8.696-25.297,8.799C257.971,249.28,257.811,249.281,257.651,249.281z"/>
<path style="fill:#F1F2F2;" d="M499.66,458.788L499.66,458.788v38.809c0,0-14.082,14.403-20.305,14.403
	s-14.082-14.403-20.305-14.403S444.969,512,438.745,512s-14.082-14.403-20.305-14.403c-6.223,0-14.082,14.403-20.305,14.403
	s-14.082-14.403-20.305-14.403c-6.223,0-14.082,14.403-20.305,14.403s-14.082-14.403-20.305-14.403
	c-6.223,0-14.082,14.403-20.305,14.403s-14.082-14.403-20.305-14.403c-6.223,0-14.082,14.403-20.305,14.403
	S262.223,497.597,256,497.597c-6.223,0-14.082,14.403-20.305,14.403s-14.082-14.403-20.305-14.403S201.308,512,195.085,512
	s-14.082-14.403-20.305-14.403S160.698,512,154.475,512c-6.223,0-14.082-14.403-20.305-14.403c-6.223,0-14.082,14.403-20.305,14.403
	c-6.223,0-14.082-14.403-20.305-14.403c-6.223,0-14.082,14.403-20.305,14.403c-6.223,0-14.082-14.403-20.305-14.403
	S38.868,512,32.645,512S12.34,497.597,12.34,497.597v-38.809l0,0c0-66.094,44.931-123.729,109.028-139.854l50.293-13.986
	l23.738-6.597c0,0,19.805,25.206,55.963,25.206c40.059,0,65.248-25.206,65.248-25.206l20.896,5.144l56.04,13.796
	c62.662,17.168,106.105,74.116,106.105,139.087v2.409H499.66z"/>
<path style="fill:#D1D3D4;" d="M254.071,346.553c34.431,0,64.871-17.008,83.439-43.061l-20.874-5.138
	c0,0-25.206,25.206-65.265,25.206c-36.158,0-55.963-25.206-55.963-25.206l-23.737,6.602
	C190.327,330.185,220.283,346.553,254.071,346.553z"/>
</svg>